<svg width="800" height="105" xmlns="http://www.w3.org/2000/svg">
 <g id="Layer_1">
  <title>Layer 1</title>
  <g stroke="null">

   <g stroke="null" data-name="3   Zusatz EN B" id="svg_3">
    <g stroke="null">
     <path stroke="null" fill="#1a1a1a" d="m434.77384,8.67603l12.23482,0c11.18926,0 18.03122,6.93367 18.03122,17.78359s-6.83279,17.78359 -18.03122,17.78359l-12.23482,0l0,-35.55801l0,-0.00917zm12.23482,29.32137c6.88782,0 10.84992,-4.55825 10.84992,-11.53778s-3.9621,-11.53778 -10.89577,-11.53778l-5.05351,0l0,23.07556l5.09937,0z" class="cls-9"/>
     <path stroke="null" fill="#1a1a1a" d="m469.19459,8.67603l7.08042,0l0,6.43841l-7.08042,0l0,-6.43841zm7.03456,35.55801l-6.93367,0l0,-26.04714l6.93367,0l0,26.04714z" class="cls-9"/>
     <path stroke="null" fill="#1a1a1a" d="m480.38385,31.21048c0,-7.67657 5.30114,-13.51883 12.67505,-13.51883s11.8863,5.74138 11.8863,13.02357l0,2.02691l-17.93034,0c0.49526,3.9621 2.92572,6.33753 6.33753,6.33753c2.67809,0 4.80588,-1.28401 5.59463,-3.81536l5.84226,2.08194c-1.88016,4.75085 -6.29167,7.42894 -11.49192,7.42894c-7.67657,0 -12.92268,-5.49375 -12.92268,-13.57386l0.00917,0.00917zm6.88782,-3.17335l10.79489,0c-0.04586,-2.5772 -1.68756,-4.80588 -5.05351,-4.80588c-2.7698,0 -4.90677,1.63253 -5.74138,4.80588z" class="cls-9"/>
     <path stroke="null" fill="#1a1a1a" d="m509.06322,18.17774l6.93367,0l0,2.67809c1.43993,-1.68756 3.81536,-3.17335 7.13545,-3.17335c5.44789,0 8.76798,3.71447 8.76798,9.36413l0,17.18744l-6.93367,0l0,-15.20639c0,-2.92572 -1.1923,-4.99848 -4.16387,-4.99848c-2.43045,0 -4.80588,1.73342 -4.80588,5.1544l0,15.05965l-6.93367,0l0,-26.04714l0,-0.01834z" class="cls-9"/>
     <path stroke="null" fill="#1a1a1a" d="m539.17334,35.42021c1.77928,2.43045 4.95262,3.9621 7.87834,3.9621c2.32957,0 4.35648,-0.78875 4.35648,-2.67809c0,-1.98105 -1.93519,-2.22868 -6.08989,-3.01743c-4.20973,-0.84378 -8.86887,-1.93519 -8.86887,-7.52982c0,-4.99848 4.4115,-8.46532 10.64814,-8.46532c4.60411,0 8.71295,1.88016 10.74903,4.50322l-3.9621,4.35648c-1.73342,-2.22868 -4.25559,-3.46684 -6.97953,-3.46684c-2.18282,0 -3.61358,0.94467 -3.61358,2.37543c0,1.68756 1.73342,1.98105 4.95262,2.62306c4.55825,0.94467 9.95111,1.98105 9.95111,7.87834c0,5.44789 -5.05351,8.81384 -11.29015,8.81384c-4.70499,0 -9.65762,-1.73342 -12.03304,-4.95262l4.31062,-4.4115l-0.00917,0.00917z" class="cls-9"/>
     <path stroke="null" fill="#1a1a1a" d="m562.90009,23.97414l-3.46684,0l0,-5.79641l3.46684,0l0,-7.42894l6.83279,0l0,7.42894l5.30114,0l0,5.79641l-5.30114,0l0,12.03304c0,2.22868 1.23816,2.52217 3.26506,2.52217c0.99052,0 1.48579,-0.04586 2.37543,-0.14674l0,5.74138c-1.23816,0.24763 -2.72394,0.39438 -4.45736,0.39438c-5.24611,0 -8.02509,-1.73342 -8.02509,-7.08042l0,-13.47297l0.00917,0.00917z" class="cls-9"/>
     <path stroke="null" fill="#1a1a1a" d="m586.47091,44.23405l-6.93367,0l0,-35.55801l6.93367,0l0,35.55801z" class="cls-9"/>
     <path stroke="null" fill="#1a1a1a" d="m590.63478,31.21048c0,-7.67657 5.30114,-13.51883 12.67505,-13.51883s11.8863,5.74138 11.8863,13.02357l0,2.02691l-17.93034,0c0.49526,3.9621 2.92572,6.33753 6.33753,6.33753c2.67809,0 4.80588,-1.28401 5.59463,-3.81536l5.84226,2.08194c-1.88016,4.75085 -6.29167,7.42894 -11.49192,7.42894c-7.67657,0 -12.92268,-5.49375 -12.92268,-13.57386l0.00917,0.00917zm6.88782,-3.17335l10.79489,0c-0.04586,-2.5772 -1.68756,-4.80588 -5.05351,-4.80588c-2.7698,0 -4.90677,1.63253 -5.74138,4.80588z" class="cls-9"/>
     <path stroke="null" fill="#1a1a1a" d="m619.20409,8.67603l7.08042,0l0,6.43841l-7.08042,0l0,-6.43841zm7.03456,35.55801l-6.93367,0l0,-26.04714l6.93367,0l0,26.04714z" class="cls-9"/>
     <path stroke="null" fill="#1a1a1a" d="m633.66759,35.42021c1.77928,2.43045 4.95262,3.9621 7.87834,3.9621c2.32957,0 4.35648,-0.78875 4.35648,-2.67809c0,-1.98105 -1.93519,-2.22868 -6.08989,-3.01743c-4.20973,-0.84378 -8.86887,-1.93519 -8.86887,-7.52982c0,-4.99848 4.4115,-8.46532 10.64814,-8.46532c4.60411,0 8.71295,1.88016 10.74903,4.50322l-3.9621,4.35648c-1.73342,-2.22868 -4.25559,-3.46684 -6.97953,-3.46684c-2.18282,0 -3.61358,0.94467 -3.61358,2.37543c0,1.68756 1.73342,1.98105 4.95262,2.62306c4.55825,0.94467 9.95111,1.98105 9.95111,7.87834c0,5.44789 -5.05351,8.81384 -11.29015,8.81384c-4.70499,0 -9.65762,-1.73342 -12.03304,-4.95262l4.31062,-4.4115l-0.00917,0.00917z" class="cls-9"/>
     <path stroke="null" fill="#1a1a1a" d="m657.39433,23.97414l-3.46684,0l0,-5.79641l3.46684,0l0,-7.42894l6.83279,0l0,7.42894l5.30114,0l0,5.79641l-5.30114,0l0,12.03304c0,2.22868 1.23816,2.52217 3.26506,2.52217c0.99052,0 1.48579,-0.04586 2.37543,-0.14674l0,5.74138c-1.23816,0.24763 -2.72394,0.39438 -4.45736,0.39438c-5.24611,0 -8.02509,-1.73342 -8.02509,-7.08042l0,-13.47297l0.00917,0.00917z" class="cls-9"/>
     <path stroke="null" fill="#1a1a1a" d="m696.46504,44.23405l-6.93367,0l0,-2.67809c-1.43993,1.68756 -3.71447,3.21921 -7.03456,3.21921c-5.40203,0 -8.86887,-3.71447 -8.86887,-9.36413l0,-17.2333l6.93367,0l0,15.70166c0,2.87069 1.28401,4.75085 4.16387,4.75085c2.43045,0 4.80588,-1.77928 4.80588,-5.1544l0,-15.30728l6.93367,0l0,26.04714l0,0.01834z" class="cls-9"/>
     <path stroke="null" fill="#1a1a1a" d="m702.21559,18.17774l6.93367,0l0,2.67809c1.43993,-1.68756 3.81536,-3.17335 7.13545,-3.17335c5.44789,0 8.76798,3.71447 8.76798,9.36413l0,17.18744l-6.93367,0l0,-15.20639c0,-2.92572 -1.1923,-4.99848 -4.16387,-4.99848c-2.43045,0 -4.80588,1.73342 -4.80588,5.1544l0,15.05965l-6.93367,0l0,-26.04714l0,-0.01834z" class="cls-9"/>
     <path stroke="null" fill="#1a1a1a" d="m741.43304,53.589c-6.29167,0 -10.64814,-2.5772 -12.13393,-7.67657l6.48427,-1.88016c0.74289,2.5772 2.7698,4.16387 5.74138,4.16387c3.61358,0 6.14492,-1.77928 6.14492,-6.08989l0,-1.77928c-1.33904,1.77928 -3.9621,3.17335 -7.22716,3.17335c-7.13545,0 -11.29015,-5.79641 -11.29015,-12.92268s4.16387,-12.87682 11.29015,-12.87682c3.21921,0 5.89729,1.3849 7.22716,3.17335l0,-2.67809l6.93367,0l0,23.17645c0,7.87834 -5.44789,12.23482 -13.17031,12.23482l0,-0.01834zm0.64201,-30.06427c-3.76033,0 -5.89729,2.67809 -5.89729,7.03456s2.12779,7.08042 5.89729,7.08042c3.32009,0 5.64966,-2.43045 5.64966,-6.68604l0,-0.69704c0,-4.31062 -2.32957,-6.7319 -5.64966,-6.7319z" class="cls-9"/>
     <path stroke="null" fill="#1a1a1a" d="m762.08732,35.42021c1.77928,2.43045 4.95262,3.9621 7.87834,3.9621c2.32957,0 4.35648,-0.78875 4.35648,-2.67809c0,-1.98105 -1.93519,-2.22868 -6.08989,-3.01743c-4.20973,-0.84378 -8.86887,-1.93519 -8.86887,-7.52982c0,-4.99848 4.4115,-8.46532 10.64814,-8.46532c4.60411,0 8.71295,1.88016 10.74903,4.50322l-3.9621,4.35648c-1.73342,-2.22868 -4.25559,-3.46684 -6.97953,-3.46684c-2.18282,0 -3.61358,0.94467 -3.61358,2.37543c0,1.68756 1.73342,1.98105 4.95262,2.62306c4.55825,0.94467 9.95111,1.98105 9.95111,7.87834c0,5.44789 -5.05351,8.81384 -11.29015,8.81384c-4.70499,0 -9.65762,-1.73342 -12.03304,-4.95262l4.31062,-4.4115l-0.00917,0.00917z" class="cls-9"/>
     <path stroke="null" fill="#1a1a1a" d="m784.27325,26.65223l14.26173,0l0,6.19078l-14.26173,0l0,-6.19078z" class="cls-9"/>
     <path stroke="null" fill="#1a1a1a" d="m458.44556,94.00793c-1.43993,2.22868 -4.80588,3.9621 -9.26324,3.9621c-9.3091,0 -16.19692,-7.42894 -16.19692,-18.12294s6.97953,-18.52649 16.69218,-18.52649c7.57568,0 12.52831,4.00796 14.75699,10.40051l-6.97953,2.32957c-0.94467,-4.00796 -3.66861,-6.33753 -7.67657,-6.33753c-5.59463,0 -9.45584,4.75085 -9.45584,11.98719s3.86121,12.08807 9.55673,12.08807c4.60411,0 7.67657,-3.21921 7.97006,-7.57568l-8.62124,0l0,-6.19078l15.74751,0l0,19.41612l-6.5393,0l0,-3.42098l0.00917,-0.00917z" class="cls-9"/>
     <path stroke="null" fill="#1a1a1a" d="m477.61405,97.42891l-6.93367,0l0,-26.04714l6.93367,0l0,2.67809c1.3849,-1.68756 3.71447,-3.17335 7.08042,-3.17335c3.17335,0 5.59463,1.33904 7.03456,3.56772c1.58667,-1.63253 4.06299,-3.56772 8.07094,-3.56772c5.347,0 8.81384,3.71447 8.81384,9.36413l0,17.18744l-6.93367,0l0,-15.20639c0,-2.92572 -1.09141,-4.99848 -3.9621,-4.99848c-2.27454,0 -4.60411,1.73342 -4.60411,5.1544l0,15.05965l-6.93367,0l0,-15.20639c0,-2.92572 -1.09141,-4.99848 -3.9621,-4.99848c-2.27454,0 -4.60411,1.73342 -4.60411,5.1544l0,15.05965l0,-0.02751z" class="cls-9"/>
     <path stroke="null" fill="#1a1a1a" d="m521.15129,94.75082l0,2.67809l-6.93367,0l0,-35.55801l6.93367,0l0,12.17979c1.53165,-1.88016 4.00796,-3.17335 7.28219,-3.17335c7.18131,0 11.34518,6.14492 11.34518,13.51883s-4.16387,13.57386 -11.34518,13.57386c-3.26506,0 -5.74138,-1.28401 -7.28219,-3.21921zm-0.14674,-9.61176c0,4.4115 2.47631,6.88782 5.79641,6.88782c3.91624,0 5.98901,-3.11832 5.98901,-7.63071s-2.08194,-7.57568 -5.98901,-7.57568c-3.32009,0 -5.79641,2.43045 -5.79641,6.88782l0,1.43993l0,-0.00917z" class="cls-9"/>
     <path stroke="null" fill="#1a1a1a" d="m574.48372,61.87089l0,35.55801l-7.28219,0l0,-15.10551l-15.74751,0l0,15.10551l-7.28219,0l0,-35.55801l7.28219,0l0,14.16084l15.74751,0l0,-14.16084l7.28219,0z" class="cls-9"/>
    </g>
   </g>
   <g stroke="null" data-name="2   GDV B" id="svg_2">
    <path stroke="null" fill="#1a1a1a" d="m310.90319,52.43339c0,-27.06518 -17.52679,-44.37185 -46.77479,-44.37185l-33.5311,0l0,88.75287l33.5311,0c29.248,0 46.77479,-17.30667 46.77479,-44.37185l0,-0.00917zm-46.77479,23.98354l-9.45584,0l0,-47.95792l9.45584,0c14.61941,0 22.31433,9.39164 22.31433,23.98354s-7.68574,23.98354 -22.31433,23.98354l0,-0.00917zm107.71959,-68.47463l25.11164,0l-32.2104,88.8721l-25.34093,0l-32.77904,-88.75287l26.3498,0l19.54453,57.10193l19.33358,-57.23033l-0.00917,0.00917zm-150.74323,39.06154l0,49.81057l-21.43386,0l0,-7.04373c-3.65944,4.82422 -11.60198,8.52952 -21.80989,8.52952c-7.6032,0 -14.54604,-1.83431 -20.49836,-5.17274c-12.98688,-7.29136 -21.23209,-21.75486 -21.23209,-40.0704c0,-14.85787 5.58546,-27.56044 15.00462,-35.9157c7.51148,-6.65853 17.46259,-10.5656 28.9912,-10.5656c20.80102,0 34.16394,10.6298 39.71271,27.44121l-23.57083,7.41977c-1.6417,-8.89638 -7.30971,-13.83984 -16.01349,-13.83984c-3.54021,0 -6.74107,0.94467 -9.48336,2.69643c-6.13575,3.91624 -9.93276,11.8863 -9.93276,22.39687c0,12.54665 5.32866,21.44303 13.75729,24.25869c1.87099,0.62366 3.88873,0.95384 6.03487,0.95384c8.31858,0 14.11498,-5.07185 15.75668,-11.73956l-17.39839,0l0,-0.20177c0.73372,-3.07246 1.13727,-6.2825 1.13727,-9.58425s-0.3852,-6.36504 -1.09141,-9.38247l42.06063,0l0.00917,0.00917z" class="cls-9"/>
   </g>
   <g stroke="null" data-name="1   Planet RGB" id="svg_1">
    <g stroke="null">
     <path stroke="null" fill="#fbc67b" d="m51.92677,52.44256l-50.45257,0c0,-27.67967 22.7729,-50.45257 50.45257,-50.45257s50.45257,22.7729 50.45257,50.45257l-50.45257,0z" class="cls-7"/>
     <path stroke="null" fill="#6cb2af" d="m51.92677,52.44256l50.45257,0c0,27.67967 -22.7729,50.45257 -50.45257,50.45257s-50.45257,-22.7729 -50.45257,-50.45257l50.45257,0z" class="cls-10"/>
     <path stroke="null" fill="#8a1538" d="m18.2856,35.62198c-9.29076,0 -16.82058,7.52982 -16.82058,16.82058l33.63199,0c0,-9.29076 -7.52982,-16.82058 -16.82058,-16.82058l0.00917,0z" class="cls-8"/>
     <path stroke="null" fill="#ee714a" d="m51.92677,23.34131c-4.95262,-2.87069 -10.68483,-4.53991 -16.82058,-4.53991c-18.57234,0 -33.63199,15.05965 -33.63199,33.63199c0,-9.29076 7.52982,-16.82058 16.82058,-16.82058s16.82058,7.52982 16.82058,16.82058l33.63199,0c0,-12.44576 -6.77776,-23.27734 -16.82058,-29.10126l0,0.00917z" class="cls-6"/>
     <path stroke="null" fill="#2d986b" d="m85.55876,69.25397c-9.29076,0 -16.82058,-7.52982 -16.82058,-16.82058c0,12.44576 -6.77776,23.27734 -16.82058,29.10126c4.95262,2.87069 10.68483,4.53991 16.82058,4.53991c18.57234,0 33.63199,-15.05965 33.63199,-33.63199c0,9.29076 -7.52982,16.82058 -16.82058,16.82058l0.00917,-0.00917z" class="cls-3"/>
     <path stroke="null" fill="#12793b" d="m85.55876,69.25397c9.29076,0 16.82058,-7.52982 16.82058,-16.82058l-33.63199,0c0,9.29076 7.52982,16.82058 16.82058,16.82058l-0.00917,0z" class="cls-2"/>
     <path stroke="null" fill="#317196" d="m35.10619,86.07456c6.13575,0 11.86796,-1.66922 16.82058,-4.53991c-10.04282,-5.81475 -16.82058,-16.65549 -16.82058,-29.10126c0,9.29076 -7.52982,16.82058 -16.82058,16.82058s-16.82058,-7.52982 -16.82058,-16.82058c0,18.57234 15.05965,33.63199 33.63199,33.63199l0.00917,0.00917z" class="cls-1"/>
     <path stroke="null" fill="#15447c" d="m18.2856,69.25397c9.29076,0 16.82058,-7.52982 16.82058,-16.82058l-33.63199,0c0,9.29076 7.52982,16.82058 16.82058,16.82058l-0.00917,0z" class="cls-4"/>
     <path stroke="null" fill="#165e5b" d="m68.73818,52.44256l-33.63199,0c0,12.44576 6.77776,23.27734 16.82058,29.10126c10.04282,-5.81475 16.82058,-16.65549 16.82058,-29.10126l-0.00917,0z" class="cls-5"/>
    </g>
   </g>
  </g>
 </g>

</svg>