<?xml version="1.0" encoding="UTF-8"?>
<svg id="Ebene_1" data-name="Ebene 1" xmlns="http://www.w3.org/2000/svg" viewBox="0 0 3271.12 779.58">
 <path d="M344.62,.7C250.62,6.5,167.82,44.2,103.12,110.6,56.82,158.2,26.42,212.9,10.22,277.5c-11.8,47.2-13.5,102.7-4.5,151.3,16,87.6,63.9,166.4,134.5,221.4,11.3,8.8,30.8,22.2,31.5,21.6,.2-.2,9.9-31.3,21.5-69.1l21.2-68.7-10.9-11.2c-17.9-18.4-29.3-34-40.3-55-35.7-68-34-150,4.7-216.8,22.4-38.7,56.3-70.2,96.6-89.9,21.9-10.7,40.9-16.7,66.1-20.7,13.6-2.2,48.5-2.5,62-.6,49.1,7.1,92.9,28.4,127.9,62.2,35.1,34,58.6,79.1,66.1,127.5,2.3,14.1,3,40.6,1.6,55-5.2,53.2-28.3,101.8-66.3,139.6l-9.7,9.6,21.1,68.4c11.5,37.6,21.3,68.7,21.7,69.2,1,1,21.8-13.3,36.6-25.1,15.7-12.6,42.5-39.5,55.1-55.2,44.6-56,70.3-118.3,78.6-190.5,1.9-16.7,1.6-59.9-.6-77.5-16.6-136.4-104.3-249.5-231.4-298.6C447.22,6.6,392.02-2.3,344.62,.7Z"/>
 <path d="M2336.12,57v57h114V0h-114V57Z"/>
 <path d="M1094.12,183c-38.3,4.8-73,18.5-102.8,40.7-11,8.2-31.1,28.2-39.7,39.4-37.1,48.4-51.1,108.8-39,168.5,10.9,53.6,43.2,101.4,89.5,132.2,52,34.6,118.6,43.4,179,23.6,77.9-25.4,133.7-94.7,142.1-176.3,1.5-14.1,.7-42.2-1.5-54.6-8-45-27.2-82.1-58.6-113.5-31.2-31.3-69.9-51.1-114-58.5-11.3-1.9-44.2-2.8-55-1.5Zm46.9,116c35.4,10.2,61.8,39,68,74.4,1.4,7.7,1.4,25.5,0,33.2-6.6,37.6-36.1,67.8-73.9,75.6-7.7,1.6-11.9,1.9-22.5,1.5-13.8-.6-20.9-2-31.5-6.4-21.8-9-38.6-24.6-49.1-45.8-7.5-15.3-9.2-22.9-9.2-41.5,0-12.8,.3-16.9,2.1-23.5,9.7-35.4,37.3-61.4,73.2-69.1,9.8-2,33.3-1.2,42.9,1.6Z"/>
 <path d="M1382.12,390v208h113V295.9l41.3,.3,41.2,.4,8.8,2.7c15.6,4.8,27.6,11.7,38.6,22.1,16.5,15.7,26.3,35,29.1,56.7,.6,5.3,1,46.8,1,114.1v105.8h114.1l-.4-113.3c-.4-124.5-.2-121.1-6.7-146.4-19-73.4-76.8-131.2-149.8-149.7-24.3-6.2-19.6-6-129.4-6.3l-100.8-.4v208.1Z"/>
 <path d="M1853.12,455v273h113v-76c0-41.8,.4-76,.9-76,.4,0,4.3,1.6,8.7,3.6,27.2,12.6,61.2,19.3,92.4,18.1,96.4-3.6,177.4-72.4,196.4-166.7,14-69.4-8.2-140.9-59-190.1-31.4-30.4-68.6-49.1-112.4-56.4-13.3-2.2-39.1-3-52.5-1.6-22,2.4-46.8,9.1-65.4,17.7-4.1,1.9-7.8,3.4-8.2,3.4-.5,0-.9-5-.9-11v-11h-113V455Zm223.6-157.9c30.6,5.4,56.8,25.8,70.1,54.5,5.4,11.8,7.7,22.8,7.7,37.9,0,13.3-1,20.3-4.6,31-9.7,28.6-33.3,51-63.5,60.2-8,2.4-10.4,2.7-25.3,2.7-14.3,.1-17.6-.2-24.5-2.2-33.4-9.6-58.6-35-67.2-67.9-3.4-13.3-3.6-31.6-.5-44.6,8.9-36.4,36.5-63.2,73.3-71.2,7.7-1.6,26.3-1.9,34.5-.4Z"/>
 <path d="M2336.12,390v208h114V182h-114v208Z"/>
 <path d="M2710.62,182.7c-42,2.9-85.6,20.4-118,47.4-89.5,74.8-100.8,205.7-25.6,295.1,32.5,38.6,79.4,64.1,130.9,71.2,13,1.8,38.8,2.1,51.2,.6,62-7.7,115.8-41.1,150-93.1,5.6-8.4,11-18,11-19.3,0-.3-45.8-.7-101.7-.8-116.2-.4-105.5,.4-125.8-9.8-17-8.6-30.2-21.2-39.8-38.3l-4.7-8.2,145.9-.3,145.9-.2,1.3-8.8c2-12.7,1.7-47-.4-59.7-5.4-30.7-15.8-57.9-31.4-81.5-9.9-15-17.5-24-31.1-37.1-42-40.5-99.1-61.2-157.7-57.2Zm38,116.3c15.7,4,32.1,13.5,43.9,25.4,6.1,6.2,15.5,19.7,18.1,26l1.5,3.6h-86.5c-58.9,0-86.5-.3-86.5-1,0-1.9,5.2-11.4,9.5-17.5,14.3-20,37.9-34.6,62.3-38.5,8.9-1.4,28.5-.4,37.7,2Z"/>
 <path d="M3000.12,390v208h114V296h157v-114h-271v208Z"/>
 <path d="M279.92,614.7c-26.3,77.4-47.4,141.1-47,141.5,1.1,1.1,22.7,8.4,35.2,11.8,13.1,3.6,31.7,7.4,48,9.7,18.2,2.5,72.9,2.5,92,0,15.1-2,39.7-6.7,51-9.8,14.8-4,35-11.2,35-12.5,0-.7-21.3-64.2-47.4-141.1l-47.4-139.8-35.8-.3-35.9-.2-47.7,140.7Z"/>
</svg>